<svg width="40" height="41" viewBox="0 0 40 41" fill="none" xmlns="http://www.w3.org/2000/svg">
<path d="M15.6699 0.547998C15.8945 0.297802 16.1901 0.122142 16.5173 0.0445492C16.8445 -0.0330435 17.1876 -0.00886342 17.5007 0.113851C17.8138 0.236565 18.0818 0.451953 18.269 0.73116C18.4561 1.01037 18.5535 1.34006 18.5479 1.67608C18.5479 3.78347 18.5479 6.38673 18.4734 7.87431C18.4734 8.20308 18.6041 8.51839 18.8368 8.75087C19.0694 8.98335 19.3849 9.11395 19.7139 9.11395L23.3237 9.17593C23.6244 9.15564 23.925 9.21619 24.1943 9.3513C24.4637 9.4864 24.6918 9.69113 24.8552 9.9442C25.0185 10.1973 25.111 10.4894 25.1231 10.7903C25.1352 11.0912 25.0665 11.3899 24.924 11.6552C18.3866 23.3203 17.754 24.8203 13.9953 31.4896C13.8054 31.81 13.5147 32.0587 13.1686 32.1966C12.8224 32.3346 12.4403 32.3541 12.0818 32.2522C11.7234 32.1502 11.4088 31.9326 11.1872 31.6331C10.9656 31.3337 10.8494 30.9694 10.8569 30.597C10.8569 28.1177 10.77 25.4773 10.708 24.3988C10.7084 24.233 10.665 24.0701 10.5823 23.9264C10.4995 23.7828 10.3803 23.6635 10.2366 23.5806C9.89011 23.3821 9.50531 23.2596 9.10778 23.2211C8.1526 23.1467 6.91212 23.3327 5.77087 23.2211C4.36913 23.2211 3.82331 21.6468 4.62963 20.3204C5.08861 19.465 12.8168 5.03552 15.6699 0.547998Z" fill="url(#paint0_linear_1_39898)"/>
<path d="M15.6699 0.547998C15.8945 0.297802 16.1901 0.122142 16.5173 0.0445492C16.8445 -0.0330435 17.1876 -0.00886342 17.5007 0.113851C17.8138 0.236565 18.0818 0.451953 18.269 0.73116C18.4561 1.01037 18.5535 1.34006 18.5479 1.67608C18.5479 3.78347 18.5479 6.38673 18.4734 7.87431C18.4734 8.20308 18.6041 8.51839 18.8368 8.75087C19.0694 8.98335 19.3849 9.11395 19.7139 9.11395L23.3237 9.17593C23.6244 9.15564 23.925 9.21619 24.1943 9.3513C24.4637 9.4864 24.6918 9.69113 24.8552 9.9442C25.0185 10.1973 25.111 10.4894 25.1231 10.7903C25.1352 11.0912 25.0665 11.3899 24.924 11.6552C18.3866 23.3203 17.754 24.8203 13.9953 31.4896C13.8054 31.81 13.5147 32.0587 13.1686 32.1966C12.8224 32.3346 12.4403 32.3541 12.0818 32.2522C11.7234 32.1502 11.4088 31.9326 11.1872 31.6331C10.9656 31.3337 10.8494 30.9694 10.8569 30.597C10.8569 28.1177 10.77 25.4773 10.708 24.3988C10.7084 24.233 10.665 24.0701 10.5823 23.9264C10.4995 23.7828 10.3803 23.6635 10.2366 23.5806C9.89011 23.3821 9.50531 23.2596 9.10778 23.2211C8.1526 23.1467 6.91212 23.3327 5.77087 23.2211C4.36913 23.2211 3.82331 21.6468 4.62963 20.3204C5.08861 19.465 12.8168 5.03552 15.6699 0.547998Z" fill="url(#paint1_linear_1_39898)"/>
<path fill-rule="evenodd" clip-rule="evenodd" d="M24.8981 11.6682C25.0406 11.4028 25.1094 11.1042 25.0973 10.8033C25.0852 10.5024 24.9926 10.2102 24.8293 9.95714C24.666 9.70407 24.4378 9.49934 24.1685 9.36424C23.8991 9.22913 23.5985 9.16858 23.2979 9.18887L19.6881 9.12689C19.3591 9.12689 19.0435 8.99628 18.8109 8.7638C18.5783 8.53133 18.4476 8.21602 18.4476 7.88724C18.4476 6.37488 18.522 3.77162 18.522 1.68902C18.5276 1.353 18.4303 1.02331 18.2431 0.7441C18.056 0.464892 17.7879 0.249505 17.4748 0.126791C17.1618 0.00407644 16.8187 -0.0201042 16.4915 0.0574885C16.1643 0.135081 15.8686 0.310741 15.6441 0.560937C13.5229 3.89558 8.68495 12.7591 6.14196 17.4201C5.27362 19.0193 4.67819 20.1225 4.54174 20.3457C3.73542 21.6721 4.28124 23.1845 5.68298 23.2465C6.25733 23.2773 6.83292 23.2773 7.40726 23.2465C7.94418 23.2099 8.48296 23.2099 9.01988 23.2465C9.41742 23.2849 9.80222 23.4075 10.1487 23.6059C10.2924 23.6888 10.4116 23.8081 10.4944 23.9518C10.5771 24.0954 10.6205 24.2584 10.6201 24.4241C10.6201 25.5398 10.8062 28.2298 10.769 30.6223C10.7309 31.012 10.8297 31.4028 11.0485 31.7276C11.2672 32.0524 11.5923 32.291 11.9679 32.4025C12.3435 32.5139 12.7462 32.4912 13.1069 32.3383C13.4676 32.1854 13.7638 31.9118 13.9446 31.5645C15.52 28.7629 16.5372 26.8662 17.6661 24.7588C19.2911 21.7961 21.0898 18.449 24.8981 11.6682ZM23.3227 10.9492L19.7005 10.8872C19.3127 10.8807 18.9301 10.798 18.5744 10.6437C18.2186 10.4895 17.8968 10.2667 17.6272 9.9881C17.3577 9.70952 17.1457 9.3806 17.0034 9.02013C16.861 8.65966 16.7912 8.2747 16.7977 7.88724C16.7977 6.46165 16.8598 4.04434 16.8598 2.01132C15.4208 4.36665 13.0143 8.65582 10.831 12.6227L7.84143 18.0895C6.92347 19.7754 6.27842 20.9779 6.12956 21.2134C6.06573 21.3108 6.02343 21.4207 6.0055 21.5357C6.42727 21.5357 6.88626 21.5357 7.41967 21.5357C8.01451 21.4983 8.61112 21.4983 9.20596 21.5357C9.85106 21.5956 10.4765 21.7899 11.0419 22.106C11.4428 22.3284 11.7793 22.6509 12.0184 23.042C12.2575 23.433 12.3912 23.8793 12.4064 24.3373C12.4684 25.453 12.5801 28.1554 12.5429 30.6223C14.0563 27.9199 15.0238 26.0604 16.1775 24.0026L16.8598 22.763C18.2987 19.9862 20.0726 16.7631 23.3227 10.9492Z" fill="url(#paint2_linear_1_39898)"/>
<path d="M34.0646 22.9639C34.8833 22.6044 35.9129 23.7697 35.3051 24.7366C34.6972 25.7036 33.6801 27.03 33.0722 27.9225C32.8916 28.1889 32.8217 28.515 32.8772 28.8319C32.9328 29.1488 33.1095 29.4317 33.3699 29.6208L35.1066 30.8605C35.2844 30.9626 35.4321 31.1098 35.5348 31.2872C35.6376 31.4645 35.6916 31.6659 35.6916 31.8708C35.6916 32.0757 35.6376 32.277 35.5348 32.4544C35.4321 32.6318 35.2844 32.779 35.1066 32.8811C26.9194 36.9719 25.989 37.5918 21.3 39.9471C21.0636 40.0201 20.8107 40.0208 20.5738 39.949C20.337 39.8773 20.127 39.7364 19.971 39.5444C19.8149 39.3525 19.7199 39.1183 19.6981 38.8719C19.6763 38.6256 19.7287 38.3783 19.8486 38.162C20.7294 36.9223 21.6225 35.4224 22.0567 34.691C22.145 34.552 22.1918 34.3907 22.1918 34.2261C22.1918 34.0615 22.145 33.9003 22.0567 33.7613C21.9492 33.5669 21.8061 33.3945 21.6349 33.253C21.1139 32.8439 20.3945 32.4596 19.7122 32.0133C19.0299 31.5671 19.2036 30.3522 20.1712 29.906C20.779 29.5712 30.7029 24.3523 34.0646 22.9639Z" fill="url(#paint3_linear_1_39898)"/>
<path d="M34.0646 22.9639C34.8833 22.6044 35.9129 23.7697 35.3051 24.7366C34.6972 25.7036 33.6801 27.03 33.0722 27.9225C32.8916 28.1889 32.8217 28.515 32.8772 28.8319C32.9328 29.1488 33.1095 29.4317 33.3699 29.6208L35.1066 30.8605C35.2844 30.9626 35.4321 31.1098 35.5348 31.2872C35.6376 31.4645 35.6916 31.6659 35.6916 31.8708C35.6916 32.0757 35.6376 32.277 35.5348 32.4544C35.4321 32.6318 35.2844 32.779 35.1066 32.8811C26.9194 36.9719 25.989 37.5918 21.3 39.9471C21.0636 40.0201 20.8107 40.0208 20.5738 39.949C20.337 39.8773 20.127 39.7364 19.971 39.5444C19.8149 39.3525 19.7199 39.1183 19.6981 38.8719C19.6763 38.6256 19.7287 38.3783 19.8486 38.162C20.7294 36.9223 21.6225 35.4224 22.0567 34.691C22.145 34.552 22.1918 34.3907 22.1918 34.2261C22.1918 34.0615 22.145 33.9003 22.0567 33.7613C21.9492 33.5669 21.8061 33.3945 21.6349 33.253C21.1139 32.8439 20.3945 32.4596 19.7122 32.0133C19.0299 31.5671 19.2036 30.3522 20.1712 29.906C20.779 29.5712 30.7029 24.3523 34.0646 22.9639Z" fill="url(#paint4_linear_1_39898)"/>
<path fill-rule="evenodd" clip-rule="evenodd" d="M35.0816 32.8776C35.2594 32.7755 35.4072 32.6283 35.5099 32.4509C35.6126 32.2736 35.6667 32.0723 35.6667 31.8673C35.6667 31.6624 35.6126 31.4611 35.5099 31.2837C35.4072 31.1063 35.2594 30.9591 35.0816 30.857L33.345 29.6174C33.0884 29.4246 32.9167 29.1399 32.8658 28.8232C32.8149 28.5065 32.8888 28.1824 33.0721 27.919C33.6799 27.0513 34.5606 25.7745 35.2677 24.7084C35.9748 23.6423 34.8832 22.5762 34.0272 22.9357C31.5463 24.0142 25.4182 27.1753 22.193 28.8364L20.1586 29.8777C19.191 30.324 18.9181 31.4024 19.6996 31.9851C20.0097 32.2206 20.3571 32.4314 20.692 32.6421C21.013 32.8273 21.3236 33.0301 21.6224 33.2495C21.7936 33.391 21.9366 33.5635 22.0441 33.7578C22.1324 33.8968 22.1792 34.058 22.1792 34.2226C22.1792 34.3873 22.1324 34.5485 22.0441 34.6875C21.61 35.4189 20.7168 36.8817 19.8361 38.1585C19.7161 38.3748 19.6637 38.6221 19.6855 38.8684C19.7073 39.1148 19.8023 39.349 19.9584 39.5409C20.1145 39.7329 20.3244 39.8738 20.5612 39.9455C20.7981 40.0173 21.051 40.0166 21.2874 39.9436C23.2474 38.9519 24.5499 38.2701 26.0137 37.4643C28.0109 36.4354 30.3182 35.2329 35.0816 32.8776ZM26.1625 35.7288C27.9364 34.7991 30.1073 33.6834 33.8908 31.7867L32.5014 30.795C31.9276 30.3836 31.5376 29.7643 31.4148 29.0694C31.2919 28.3744 31.446 27.659 31.844 27.0761L33.3326 24.9067C31.5835 25.7373 29.1149 26.9769 26.8076 28.1546L23.0861 30.0884L21.1014 31.1049L21.5479 31.3777C21.9112 31.5889 22.2593 31.825 22.5899 32.0842C22.9025 32.3319 23.1673 32.6344 23.3714 32.9768C23.6021 33.3492 23.7243 33.7785 23.7243 34.2164C23.7243 34.6544 23.6021 35.0837 23.3714 35.4561C23.0365 36.0139 22.4163 37.0304 21.734 38.0717L25.3438 36.1999L26.1625 35.7288Z" fill="url(#paint5_linear_1_39898)"/>
<defs>
<linearGradient id="paint0_linear_1_39898" x1="22.0212" y1="3.91984" x2="9.70314" y2="24.654" gradientUnits="userSpaceOnUse">
<stop stop-color="#FFFD54"/>
<stop offset="1" stop-color="#FFBC00"/>
</linearGradient>
<linearGradient id="paint1_linear_1_39898" x1="2.42157" y1="11.4569" x2="17.3667" y2="17.2901" gradientUnits="userSpaceOnUse">
<stop stop-color="white"/>
<stop offset="1" stop-color="white" stop-opacity="0"/>
</linearGradient>
<linearGradient id="paint2_linear_1_39898" x1="8.74698" y1="23.2712" x2="18.539" y2="11.612" gradientUnits="userSpaceOnUse">
<stop stop-color="#F5BE41" stop-opacity="0.8"/>
<stop offset="0.56" stop-color="#F8D147" stop-opacity="0.56"/>
<stop offset="1" stop-color="#FFFD54" stop-opacity="0"/>
</linearGradient>
<linearGradient id="paint3_linear_1_39898" x1="1520.58" y1="1194.43" x2="1320.44" y2="1104.35" gradientUnits="userSpaceOnUse">
<stop stop-color="#FFFD54"/>
<stop offset="1" stop-color="#FFBC00"/>
</linearGradient>
<linearGradient id="paint4_linear_1_39898" x1="1330.77" y1="1251.22" x2="1424.62" y2="1115.32" gradientUnits="userSpaceOnUse">
<stop stop-color="white"/>
<stop offset="1" stop-color="white" stop-opacity="0"/>
</linearGradient>
<linearGradient id="paint5_linear_1_39898" x1="20.9029" y1="33.2123" x2="28.3203" y2="31.2512" gradientUnits="userSpaceOnUse">
<stop stop-color="#F5BE41" stop-opacity="0.8"/>
<stop offset="1" stop-color="#FFFD54" stop-opacity="0"/>
</linearGradient>
</defs>
</svg>
