<svg width="91" height="70" viewBox="0 0 91 70" fill="none" xmlns="http://www.w3.org/2000/svg">
<g opacity="0.9">
<path d="M40.3372 54.7922C26.9384 54.7922 14.0744 54.7922 7.12496 54.7922C4.17944 54.7922 1.80078 52.4044 1.80078 49.4589V7.32551C1.80078 4.37999 4.1553 1.99219 7.10081 1.99219C21.3269 1.99219 60.4627 1.99219 78.0845 1.99219C81.03 1.99219 83.4008 4.38 83.4008 7.32552V21.9922" stroke="white" stroke-width="2.66667"/>
<path d="M24.9162 66.0246C24.2403 66.3168 23.9292 67.1017 24.2215 67.7776C24.5137 68.4535 25.2985 68.7645 25.9744 68.4723L24.9162 66.0246ZM40.129 62.0651C37.0138 62.0651 33.1714 63.088 30.2063 64.0559C28.7027 64.5468 27.3847 65.0371 26.4423 65.4047C25.9707 65.5887 25.5921 65.7425 25.33 65.8507C25.199 65.9049 25.097 65.9477 25.0271 65.9773C24.9921 65.9921 24.9651 66.0036 24.9465 66.0116C24.9372 66.0155 24.93 66.0186 24.9249 66.0208C24.9224 66.0219 24.9204 66.0228 24.9189 66.0234C24.9182 66.0237 24.9176 66.024 24.9172 66.0242C24.9169 66.0243 24.9167 66.0244 24.9166 66.0244C24.9164 66.0245 24.9162 66.0246 25.4453 67.2484C25.9744 68.4723 25.9743 68.4723 25.9743 68.4724C25.9743 68.4724 25.9742 68.4724 25.9743 68.4724C25.9744 68.4723 25.9746 68.4722 25.9749 68.4721C25.9756 68.4718 25.9769 68.4712 25.9786 68.4705C25.9822 68.469 25.9878 68.4665 25.9955 68.4632C26.011 68.4566 26.0347 68.4465 26.0664 68.4331C26.1297 68.4063 26.2247 68.3664 26.3484 68.3153C26.5959 68.213 26.9581 68.066 27.4116 67.889C28.3194 67.5348 29.5889 67.0626 31.0338 66.591C33.9659 65.6338 37.4653 64.7318 40.129 64.7318V62.0651Z" fill="white"/>
<path d="M70.3359 67.9922H44.1953C41.9862 67.9922 40.1953 66.2013 40.1953 63.9922V17.9922C40.1953 15.783 41.9862 13.9922 44.1953 13.9922H79.3953C81.6044 13.9922 83.3953 15.783 83.3953 17.9922V26.6589" stroke="white" stroke-width="2.66667"/>
<path d="M58.5 58.1406H62.7" stroke="white" stroke-width="2.66667" stroke-linecap="round"/>
<path d="M68.6289 30.7031C68.6289 28.494 70.4198 26.7031 72.6289 26.7031H85.5356C87.7447 26.7031 89.5356 28.494 89.5356 30.7031V64.5031C89.5356 66.7123 87.7447 68.5031 85.5356 68.5031H72.6289C70.4198 68.5031 68.6289 66.7123 68.6289 64.5031V30.7031Z" stroke="white" stroke-width="2.66667"/>
<path d="M77.5859 60.8906H80.5726" stroke="white" stroke-width="2.66667" stroke-linecap="round"/>
</g>
</svg>
