<svg width="234" height="40" viewBox="0 0 234 40" fill="none" xmlns="http://www.w3.org/2000/svg">
<g clip-path="url(#clip0_1_16666)">
<path d="M12.7491 12.8203C16.5332 12.8203 19.6879 14.7531 21.157 16.8418V13.3421H26.9367V39.4522H23.0114C21.9874 39.4522 21.157 38.6284 21.157 37.6096V35.956C19.6879 38.0429 16.5332 39.9742 12.7491 39.9742C5.55252 39.9742 0.0858154 33.8658 0.0858154 26.398C0.0858154 18.9302 5.55252 12.8203 12.7491 12.8203ZM13.8006 18.0432C9.12311 18.0432 5.9699 21.6977 5.9699 26.398C5.9699 31.0968 9.12311 34.7536 13.8006 34.7536C18.4766 34.7536 21.6312 31.0968 21.6312 26.398C21.6312 21.6977 18.4769 18.0432 13.8006 18.0432Z" fill="#77C159"/>
<path d="M33.5038 13.3421H39.2849V16.8928C40.8599 14.2826 43.8565 12.8203 47.2722 12.8203C53.3666 12.8203 57.3087 17.1023 57.3087 23.7348V39.4513H53.382C52.3583 39.4513 51.5276 38.6261 51.5276 37.6087V24.6748C51.5276 20.5499 49.4247 18.0432 46.0641 18.0432C42.2278 18.0432 39.2852 21.0197 39.2852 26.6061V39.4513H35.3567C34.3345 39.4513 33.5038 38.6261 33.5038 37.6087V13.3421Z" fill="#77C159"/>
<path d="M74.5433 12.8209C78.3259 12.8209 81.4806 14.7537 82.9511 16.8424V0.289062H88.7294V39.4528H84.8041C83.7818 39.4528 82.9511 38.6291 82.9511 37.6102V35.9566C81.4806 38.0436 78.3259 39.9749 74.5433 39.9749C67.3435 39.9749 61.8788 33.8665 61.8788 26.3986C61.8788 18.9308 67.3437 12.8209 74.5433 12.8209ZM75.595 18.0438C70.919 18.0438 67.7658 21.6983 67.7658 26.3986C67.7658 31.0975 70.919 34.7543 75.595 34.7543C80.2693 34.7543 83.4225 31.0975 83.4225 26.3986C83.4225 21.6983 80.2693 18.0438 75.595 18.0438Z" fill="#77C159"/>
<path d="M95.2928 13.339H101.073V17.9865C102.07 15.01 105.013 13.0781 108.01 13.0781C108.743 13.0781 109.482 13.1309 110.269 13.2871V19.1874C109.268 18.8738 108.43 18.7175 107.38 18.7175C104.069 18.7175 101.073 21.4865 101.073 26.7083V39.4483H97.1461C96.1238 39.4483 95.2931 38.6231 95.2931 37.6057V13.339H95.2928Z" fill="#77C159"/>
<path d="M125.852 39.9742C118.077 39.9742 112.086 33.9679 112.086 26.3994C112.086 18.8273 118.077 12.8203 125.852 12.8203C133.631 12.8203 139.619 18.8258 139.619 26.3994C139.619 33.9679 133.631 39.9742 125.852 39.9742ZM125.852 34.6499C130.477 34.6499 133.735 31.045 133.735 26.3994C133.735 21.7528 130.476 18.1478 125.852 18.1478C121.177 18.1478 117.919 21.7528 117.919 26.3994C117.919 31.045 121.177 34.6499 125.852 34.6499Z" fill="#77C159"/>
<path d="M147.193 7.65308C145.092 7.65308 143.305 5.93163 143.305 3.78816C143.305 1.69946 145.092 -0.0234375 147.193 -0.0234375C149.347 -0.0234375 151.029 1.69975 151.029 3.78816C151.029 5.93163 149.347 7.65308 147.193 7.65308ZM144.305 13.3435H150.083V39.4537H146.158C145.134 39.4537 144.305 38.6267 144.305 37.6111V13.3435Z" fill="#77C159"/>
<path d="M167.497 12.8209C171.281 12.8209 174.435 14.7537 175.907 16.8424V0.289062H181.686V39.4528H177.761C176.735 39.4528 175.907 38.6291 175.907 37.6102V35.9566C174.435 38.0436 171.281 39.9749 167.497 39.9749C160.301 39.9749 154.836 33.8665 154.836 26.3986C154.836 18.9308 160.301 12.8209 167.497 12.8209ZM168.549 18.0438C163.875 18.0438 160.722 21.6983 160.722 26.3986C160.722 31.0975 163.875 34.7543 168.549 34.7543C173.227 34.7543 176.38 31.0975 176.38 26.3986C176.379 21.6983 173.227 18.0438 168.549 18.0438Z" fill="#77C159"/>
<path opacity="0.8" d="M191.737 16.6715H186.082V13.2068H191.737V5.90625H195.435V13.2068H203.151V16.6715H195.435V31.8486C195.435 35.0509 196.863 36.3109 199.821 36.3109C200.877 36.3109 202.305 36.1005 203.151 35.7344V39.0419C201.933 39.5149 200.667 39.7251 199.24 39.7251C194.749 39.7251 191.737 37.15 191.737 32.1613V16.6715Z" fill="white"/>
<path opacity="0.8" d="M233.217 13.1953L220.854 39.4521H217.947L205.582 13.1953H209.704L219.374 34.0426L229.043 13.1953H233.217Z" fill="white"/>
</g>
<defs>
<clipPath id="clip0_1_16666">
<rect width="233.333" height="40" fill="white"/>
</clipPath>
</defs>
</svg>
