<svg width="22" height="21" viewBox="0 0 22 21" fill="none" xmlns="http://www.w3.org/2000/svg">
<path d="M13.0848 20.7207C17.7988 19.7561 21.3448 15.5852 21.3448 10.586C21.3448 4.87275 16.7133 0.241211 11 0.241211C5.28669 0.241211 0.655151 4.87275 0.655151 10.586C0.655151 15.5345 4.12965 19.6714 8.77215 20.6904V13.2152H6.44826V10.1393H8.77215V7.51201C8.77215 5.44748 10.1449 3.55156 13.308 3.55156C14.5886 3.55156 15.5357 3.6709 15.5357 3.6709L15.461 6.54333C15.461 6.54333 14.4952 6.53419 13.4413 6.53419C12.3007 6.53419 12.1179 7.04517 12.1179 7.89326V10.1393H15.5517L15.4023 13.2152H12.1179V20.8712C12.445 20.836 12.7676 20.7856 13.0848 20.7207Z" fill="white"/>
</svg>
