<svg width="103" height="41" viewBox="0 0 103 41" fill="none" xmlns="http://www.w3.org/2000/svg">
<g opacity="0.8" clip-path="url(#clip0_1_16660)">
<path d="M48.6896 38.9593H45.6361V20.6387H48.6896V38.9593ZM47.1629 17.5852C46.0942 17.5852 45.1781 16.6692 45.1781 15.6005C45.1781 14.5318 46.0942 13.6158 47.1629 13.6158C48.2316 13.6158 49.1476 14.5318 49.1476 15.6005C49.1476 16.6692 48.2316 17.5852 47.1629 17.5852ZM65.6361 39.4173C57.5445 39.4173 52.3537 33.6158 52.3537 24.4555C52.3537 15.2951 57.5445 9.49362 65.6361 9.49362C73.7277 9.49362 78.9186 15.2951 78.9186 24.4555C78.9186 33.6158 73.7277 39.4173 65.6361 39.4173ZM76.0178 24.4555C76.0178 16.8219 72.0484 11.9364 65.6361 11.9364C59.2239 11.9364 55.2545 16.8219 55.2545 24.4555C55.2545 32.089 59.2239 36.8219 65.6361 36.8219C72.0484 36.8219 76.0178 32.089 76.0178 24.4555ZM92.3537 39.4173C86.2468 39.4173 81.972 36.0585 81.6667 31.0203H84.4148C84.7201 34.5318 87.9262 36.8219 92.5064 36.8219C96.9338 36.8219 99.9873 34.3791 99.9873 31.173C99.9873 28.4249 98.1552 26.8982 93.7277 25.8295L90.0636 24.9135C84.7201 23.5394 82.2774 21.2493 82.2774 17.4325C82.2774 12.6997 86.5522 9.34095 92.201 9.34095C97.8499 9.34095 101.972 12.6997 102.125 17.2799H99.6819C99.5293 14.0738 96.6285 11.9364 92.5064 11.9364C88.5369 11.9364 85.4835 14.2264 85.4835 17.4325C85.4835 19.8753 87.3155 21.402 91.5903 22.4707L94.7964 23.2341C100.598 24.7608 103.041 26.8982 103.041 31.0203C102.888 36.0585 98.9186 39.4173 92.3537 39.4173ZM33.4224 31.4783C32.8117 32.8524 32.0484 34.2264 31.285 35.2951C30.2163 36.9745 29.3003 38.0432 28.5369 38.6539C27.4682 39.7226 26.2468 40.1806 25.0255 40.1806C24.1094 40.1806 23.0407 39.8753 21.6667 39.4173C20.4453 38.9593 19.2239 38.6539 18.1552 38.6539C17.0865 38.6539 15.8652 38.9593 14.4911 39.4173C13.2697 39.8753 12.201 40.1806 11.285 40.1806C10.0636 40.1806 8.84226 39.7226 7.62088 38.5013C6.85752 37.8906 5.94149 36.6692 4.72012 34.9898C3.49875 33.3104 2.43005 31.173 1.66669 28.8829C0.903328 26.5929 0.445312 24.1501 0.445312 21.86C0.445312 19.1119 1.056 16.8219 2.1247 14.9898C3.04073 13.4631 4.26211 12.2417 5.78882 11.3257C7.31554 10.4096 8.99493 9.95163 10.6743 9.95163C11.5903 9.95163 12.9644 10.257 14.4911 10.8677C16.0178 11.4784 17.0865 11.7837 17.5445 11.7837C17.8499 11.7837 18.9186 11.4784 20.9033 10.715C22.7354 10.1043 24.2621 9.79896 25.4835 9.95163C28.8423 10.257 31.4377 11.4784 33.1171 13.9211C30.0636 15.7532 28.6896 18.3486 28.6896 21.5547C28.6896 24.1501 29.6056 26.2875 31.4377 27.9669C32.201 28.7303 33.1171 29.3409 34.1858 29.799C33.8804 30.257 33.5751 30.8677 33.4224 31.4783ZM25.6361 1.09667C25.6361 3.0814 24.8728 4.91347 23.4987 6.74553C21.8194 8.73026 19.682 9.95163 17.3919 9.79896C17.3919 9.49362 17.3919 9.34095 17.3919 9.0356C17.3919 7.05087 18.1552 5.06614 19.682 3.38675C20.4453 2.47072 21.3613 1.86003 22.43 1.24934C23.4987 0.638657 24.5674 0.333313 25.6361 0.333313C25.6361 0.638656 25.6361 0.791328 25.6361 1.09667Z" fill="white"/>
</g>
<defs>
<clipPath id="clip0_1_16660">
<rect width="102.443" height="40" fill="white" transform="translate(0.445312 0.333313)"/>
</clipPath>
</defs>
</svg>
