<svg width="264" height="36" viewBox="0 0 264 36" fill="none" xmlns="http://www.w3.org/2000/svg">
<path opacity="0.8" d="M159.456 21.1051L166.489 34.2991H171.088L164.054 20.8464L159.456 21.1051Z" fill="white"/>
<path opacity="0.8" d="M173.26 7.38746H183.54V34.293H187.868V7.38746H198.147V4.54169H173.26V7.38746Z" fill="white"/>
<path opacity="0.8" d="M75.5945 34.8191C82.0867 34.8191 86.1443 31.9733 86.4148 27.5753C86.6853 23.1773 84.2507 20.8489 77.488 18.2619C71.8074 16.1922 69.9138 14.3813 69.9138 11.7942C69.9138 8.94841 72.6189 7.13746 76.6765 7.13746C79.9226 7.13746 82.6277 7.65488 84.2507 8.431L85.6033 5.84393C83.1687 4.8091 79.9226 4.29169 75.865 4.29169C69.3728 4.29169 65.5857 7.65488 65.5857 12.0529C65.5857 16.4509 68.2908 18.7793 74.5125 21.1076C80.1931 23.1773 81.8162 24.4708 81.8162 27.3166C81.8162 30.1624 79.1111 32.232 74.242 31.9733C71.8074 31.9733 68.5613 30.9385 66.6677 29.9037L65.3152 32.4908C66.9382 33.2669 70.1843 34.8191 75.5945 34.8191Z" fill="white"/>
<g opacity="0.8">
<path d="M121.591 4.80731H114.828L106.172 31.4541L97.5154 4.80731H90.7527V34.2999H93.9988V7.13568L102.926 34.2999H108.606L117.262 7.13568V34.2999H117.803L121.591 24.2103V4.80731Z" fill="white"/>
</g>
<g opacity="0.8">
<path d="M168.115 6.61134C166.221 5.31781 163.516 4.54169 160 4.54169H148.909V22.6512L153.237 33.7756V7.38746H159.729C164.869 7.38746 166.492 9.71583 166.492 13.079C166.492 16.7009 164.869 19.288 158.918 19.288H154.59V21.8751H161.623C167.303 21.8751 170.55 17.7357 170.55 13.3377C170.82 10.2332 169.738 7.90488 168.115 6.61134Z" fill="white"/>
</g>
<path opacity="0.8" d="M263.335 4.7995H258.736L249.539 29.8941L240.071 4.7995H235.202L246.293 34.2921H252.244L263.335 4.7995Z" fill="white"/>
<path opacity="0.8" d="M206.26 7.12786H216.81V34.2921H222.491V7.12786H233.041V4.7995H206.26V7.12786Z" fill="white"/>
<g opacity="0.8">
<path d="M38.5418 22.9186H44.4929V28.0927C43.4109 28.6101 41.2468 29.1276 39.0828 29.1276C32.5906 29.1276 30.4265 26.0231 30.4265 19.5554C30.4265 13.3464 32.5906 9.98324 39.0828 9.98324C42.5994 9.98324 44.7634 11.0181 46.3865 13.0877L50.7146 9.20712C48.0095 5.58522 43.1404 4.29169 38.8123 4.29169C28.8035 4.29169 23.3933 9.46583 23.3933 19.5554C23.3933 29.645 28.2625 34.8191 38.8123 34.8191C43.6814 34.8191 48.28 33.5256 50.9851 31.9733V17.4857H38.5418V22.9186Z" fill="white"/>
<path d="M7.70777 4.5495H0.674561V34.3008H22.5857V28.6093H7.70777V4.5495Z" fill="white"/>
</g>
<path d="M139.171 15.1543L143.228 12.8259L138.63 0.666687L135.925 6.61695L139.171 15.1543Z" fill="#1999D6"/>
<path d="M143.228 12.8229L139.171 15.1513L141.064 19.5493L147.015 22.9125L143.228 12.8229Z" fill="#30BEC2"/>
<path d="M136.19 23.1745L138.625 24.9854L136.19 26.5377L147.281 35.075L145.387 30.1596L136.19 23.1745Z" fill="#97C742"/>
<path d="M136.187 23.1745L125.908 30.4183L124.014 35.075L136.187 26.5377L133.753 24.9854L136.187 23.1745Z" fill="#F68524"/>
<path d="M136.187 23.1745L133.753 24.9854L136.187 26.5377L138.622 24.9854L136.187 23.1745Z" fill="#9D7230"/>
<path d="M147.009 22.9127L141.057 19.5495L145.386 30.1565L151.607 35.0719L147.009 22.9127Z" fill="#71C596"/>
<path d="M145.393 30.1589L147.287 35.0743H151.615L145.393 30.1589Z" fill="#38B24B"/>
<path d="M130.241 20.5807L123.749 24.4614L119.421 35.0683L125.913 30.4116L130.241 20.5807Z" fill="#F15C2A"/>
<path d="M119.421 35.0734H124.019L125.913 30.4167L119.421 35.0734Z" fill="#EF3B25"/>
<path d="M135.923 6.61695L133.488 0.666687L128.889 12.3085L132.677 14.3782L135.923 6.61695Z" fill="#6E449B"/>
<path d="M128.892 12.3151L123.753 24.4744L130.245 20.5937L132.679 14.3848L128.892 12.3151Z" fill="#ED174F"/>
<path d="M138.623 0.666687H133.483L135.918 6.61695L138.623 0.666687Z" fill="#3C2E46"/>
</svg>
