<svg width="22" height="21" viewBox="0 0 22 21" fill="none" xmlns="http://www.w3.org/2000/svg">
<path fill-rule="evenodd" clip-rule="evenodd" d="M21.3448 10.586C21.3448 16.299 16.7129 20.9309 11 20.9309C5.28705 20.9309 0.655151 16.299 0.655151 10.586C0.655151 4.87311 5.28705 0.241211 11 0.241211C16.7129 0.241211 21.3448 4.87311 21.3448 10.586ZM11.3707 7.87828C10.3646 8.29638 8.35343 9.16276 5.33791 10.4766C4.84825 10.6714 4.59136 10.8619 4.56808 11.0481C4.52843 11.3636 4.92325 11.4878 5.45946 11.6559C5.53274 11.6791 5.6086 11.7024 5.68619 11.7283C6.21463 11.8998 6.92498 12.1007 7.29394 12.1085C7.62929 12.1153 8.00343 11.9774 8.41636 11.6947C11.2336 9.79207 12.6879 8.83087 12.7793 8.81018C12.8439 8.79552 12.9336 8.77656 12.9939 8.83087C13.0543 8.88431 13.0483 8.98604 13.0422 9.01362C13.0026 9.18 11.456 10.6188 10.6543 11.3636C10.4043 11.5955 10.2276 11.7602 10.1914 11.7981C10.1103 11.8817 10.0276 11.9619 9.94825 12.0386C9.45687 12.511 9.08963 12.8662 9.96894 13.4455C10.3914 13.724 10.7293 13.9541 11.0664 14.1835C11.4345 14.4343 11.8017 14.6843 12.2776 14.9964C12.3983 15.0757 12.5138 15.1576 12.6267 15.2378C13.0552 15.5438 13.4405 15.8179 13.9164 15.7748C14.1922 15.749 14.4784 15.4895 14.6233 14.7145C14.9655 12.8817 15.6396 8.91276 15.7957 7.27656C15.8052 7.14071 15.7994 7.00422 15.7784 6.86966C15.7659 6.76098 15.713 6.66098 15.6302 6.58949C15.5069 6.48862 15.3155 6.46707 15.2293 6.4688C14.8405 6.47569 14.2439 6.68345 11.3707 7.87828Z" fill="white"/>
</svg>
